<?xml version="1.0" encoding="utf-8"?>
<!-- Generator: Adobe Illustrator 25.0.0, SVG Export Plug-In . SVG Version: 6.00 Build 0)  -->
<svg version="1.1" id="Layer_1" xmlns="http://www.w3.org/2000/svg" xmlns:xlink="http://www.w3.org/1999/xlink" x="0px" y="0px"
	 viewBox="0 0 792 612" style="enable-background:new 0 0 792 612;" xml:space="preserve">
<path d="M758.8,295.9c0,2.7-2.2,5-5,5c-2.7,0-5-2.2-5-5c0-2.7,2.2-5,5-5C756.5,290.9,758.8,293.2,758.8,295.9z M774.1,309.2
	c0,20.2-16.4,36.6-36.6,36.6c-6.1,0-11.9-1.5-17-4.2l-27.8,11.8c5.9,30.1,22.9,70.8,23,71.2c1,2.3-0.1,4.9-2.4,5.9
	c-0.6,0.2-1.2,0.3-1.7,0.3c-1.8,0-3.4-1-4.1-2.8c-0.7-1.7-16.8-40.4-23.2-71.1l-33,14l-19.1,57.6c-0.7,2.1-2.8,3.4-5,3l-66-10.4
	l-3,10.1c-0.6,2-2.4,3.2-4.3,3.2c-0.4,0-0.8-0.1-1.3-0.2c-2.4-0.7-3.7-3.2-3.1-5.6l4.1-13.9c0.6-2.2,2.8-3.5,5-3.2l66.2,10.4
	l18.5-55.9c0.4-1.2,1.3-2.2,2.5-2.7l66.1-28c-6.8-6.6-11.1-15.9-11.1-26.2c0-20.2,16.4-36.6,36.6-36.6
	C757.7,272.6,774.1,289,774.1,309.2z M764.7,313.9c0.3-1.5,0.4-3.1,0.4-4.7c0-15.2-12.4-27.6-27.6-27.6s-27.6,12.4-27.6,27.6
	s12.4,27.6,27.6,27.6c9.2,0,17.3-4.5,22.3-11.4c-5.1,0.4-18.6,1-20.7-5C736.7,313.2,750.4,305.6,764.7,313.9z M458.1,180.1
	c0.7-0.6,1.3-1.2,2-1.8c0.7-0.6,1.4-1.2,2.1-1.7l2.2-1.6c0.1-0.1,0.1-0.1,0.1-0.2c0-0.2-0.2-0.3-0.4-0.3l-0.2,0
	c-1.2,0-2.4,0.1-3.6,0.3c-1.1,0.2-2.2,0.5-3.3,0.8c-1,0.3-2,0.8-3,1.2c-0.5,0.2-0.9,0.5-1.4,0.7c-0.5,0.3-0.9,0.5-1.4,0.8
	c-3.5,2.3-6.3,5.5-8,9.1c-1.7,3.7-2.4,7.8-1.9,12c0.1,0.5,0.2,1,0.3,1.6c0.1,0.5,0.2,1,0.3,1.6c0.3,1,0.6,2.1,1,3.1
	c0.5,1,0.9,2,1.5,3c0.6,1,1.3,2,2.1,2.9l0.1,0.1c0.1,0.1,0.2,0.1,0.3,0.2c0.2,0,0.3-0.1,0.3-0.3l-0.2-2.7c0-0.9,0-1.8,0-2.7
	c0-0.9,0.1-1.8,0.1-2.7c0.1-0.9,0.2-1.8,0.3-2.7c0.5-3.5,1.4-6.9,2.9-10.1c1.5-3.2,3.5-6.1,5.9-8.7
	C456.8,181.4,457.4,180.7,458.1,180.1z M473.2,184.6c0.1,0,0.1-0.1,0.1-0.2c0-0.1-0.2-0.3-0.3-0.3l-0.2,0c-1.1,0-2.1,0.1-3.1,0.3
	c-1,0.2-1.9,0.4-2.9,0.7c-0.9,0.3-1.8,0.7-2.6,1c-0.4,0.2-0.8,0.4-1.2,0.7c-0.4,0.2-0.8,0.5-1.2,0.7c-3.1,2-5.5,4.8-7,8
	c-1.5,3.2-2.1,6.8-1.7,10.5c0.1,0.5,0.1,0.9,0.2,1.4c0.1,0.5,0.1,0.9,0.3,1.4c0.3,0.9,0.5,1.8,0.9,2.7c0.4,0.9,0.8,1.8,1.3,2.6
	c0.5,0.9,1.1,1.7,1.8,2.6l0.1,0.1c0.1,0.1,0.2,0.1,0.3,0.1c0.2,0,0.3-0.1,0.3-0.2l-0.2-2.4c0-0.8,0-1.6,0-2.4c0-0.8,0.1-1.6,0.1-2.4
	c0-0.8,0.2-1.5,0.2-2.3c0.4-3.1,1.2-6,2.5-8.8c1.3-2.8,3-5.3,5.1-7.6c0.5-0.6,1.1-1.1,1.6-1.7c0.6-0.5,1.1-1.1,1.8-1.6
	c0.6-0.5,1.2-1,1.8-1.5L473.2,184.6z M470.4,433h53.1V241.3h-53.1V433z M561.8,428.4c10.3,6.6,21.9,5.6,36.3,5.6h24.3v-0.8
	l-59.3-9.3L561.8,428.4z M550.8,415.7l0.5-1.7c0.9-3,3.7-5.1,6.8-5.1c0.4,0,0.7,0,1.1,0.1l63.2,10v-18h-9.6c-4,0-8.5,0.1-10.5-2.7
	c-2.1-2.8-1.6-8.3-1.6-13.5V263.2h14.6v-33h-14.6v-31.7h-52.5v31.7h-11.5v33h11.5v114.2C548.1,391.8,546.9,405.7,550.8,415.7z
	 M470.4,230.2h53.1v-31.7h-53.1V230.2z"/>
<path d="M298.3,335c-5,0-8.5,2.2-10.5,5.7h-0.1v-19.4h-5.5v37.2c0,2.7-0.1,5.9-0.3,8h4.8l0.3-5.1h0.2c2.3,4.1,5.9,5.8,10.3,5.8
	c6.9,0,13.8-5.5,13.8-16.5C311.4,341.4,306,335,298.3,335z M296.4,362.8c-4.1,0-7.3-2.7-8.4-6.6c-0.1-0.6-0.3-1.3-0.3-2v-5.5
	c0-0.9,0.2-1.7,0.3-2.3c1.1-4.3,4.7-6.9,8.5-6.9c6,0,9.2,5.3,9.2,11.5C305.7,358,302.2,362.8,296.4,362.8z M330.6,335
	c-9,0-14.5,7.3-14.5,16.6c0,9.3,5.7,15.5,15.2,15.5c4.9,0,8.3-1,10.3-1.9l-1-4c-2.1,0.9-4.5,1.6-8.5,1.6c-5.6,0-10.4-3.1-10.6-10.7
	h21.6c0.1-0.6,0.2-1.5,0.2-2.6C343.4,343.8,340.7,335,330.6,335z M321.6,348.1c0.4-3.9,2.9-9.1,8.6-9.1c6.3,0,7.8,5.5,7.8,9.1H321.6
	z M356.4,335.7h7.4v4.3h-7.4v26.6h-5.5V340h-4.3v-4.3h4.3v-1.5c0-4.3,1-8.3,3.6-10.8c2.1-2,4.9-2.9,7.5-2.9c2,0,3.7,0.4,4.8,0.9
	l-0.8,4.3c-0.8-0.4-2-0.7-3.6-0.7c-4.8,0-6,4.2-6,8.9V335.7z M381.1,335c-8.5,0-15.3,6-15.3,16.4c0,9.7,6.4,15.9,14.8,15.9
	c7.4,0,15.3-5,15.3-16.4C396,341.4,390,335,381.1,335z M380.9,363c-5.5,0-9.4-5.1-9.4-11.8c0-5.9,2.9-12,9.5-12
	c6.6,0,9.2,6.6,9.2,11.8C390.2,358,386.2,363,380.9,363z M416.7,335c0.6,0,1.1,0.1,1.6,0.2v5.3c-0.6-0.1-1.1-0.2-1.9-0.2
	c-3.9,0-6.7,3-7.5,7.2c-0.1,0.8-0.3,1.7-0.3,2.6v16.4H403v-21.2c0-3.6-0.1-6.7-0.3-9.6h4.9l0.2,6h0.3
	C409.5,337.6,412.9,335,416.7,335z M448.2,349.5c0-5.7-2.7-14.5-12.7-14.5c-9,0-14.5,7.3-14.5,16.6c0,9.3,5.7,15.5,15.2,15.5
	c4.9,0,8.3-1,10.3-1.9l-1-4c-2.1,0.9-4.5,1.6-8.5,1.6c-5.6,0-10.4-3.1-10.6-10.7H448C448.1,351.5,448.2,350.7,448.2,349.5z
	 M426.4,348.1c0.4-3.9,2.9-9.1,8.6-9.1c6.3,0,7.8,5.5,7.8,9.1H426.4z"/>
<path d="M71.7,416.7l57.7-47.7c1.2-1,1.9-2.6,1.8-4.2c-0.1-1.6-0.9-3.1-2.3-3.9l-59.6-38.6v-24.9l47.5,20.8c0.6,0.3,1.3,0.4,2,0.4
	c0.5,0,1-0.1,1.5-0.2l26.5-8.3c2.7-0.8,4.1-3.6,3.3-6.3c-0.8-2.7-3.6-4.1-6.3-3.3l-24.7,7.7l-49.8-21.8v-17.7
	c17.1-2.5,30.3-17.2,30.3-34.9c0-19.5-15.8-35.3-35.3-35.3S29,214.3,29,233.8c0,17.8,13.2,32.5,30.3,34.9v20.9c0,0,0,0,0,0V325
	c0,1.7,0.9,3.3,2.3,4.2l56.1,36.4l-56.6,46.8c-1.1,0.9-1.7,2.2-1.8,3.6c-0.1,1.4,0.4,2.8,1.4,3.8l9.9,10.3c1,1,2.3,1.6,3.6,1.6
	c1.3,0,2.5-0.5,3.5-1.4c2-1.9,2.1-5.1,0.2-7.1L71.7,416.7z M39.1,233.8c0-13.9,11.3-25.2,25.2-25.2c13.9,0,25.2,11.3,25.2,25.2
	c0,5.3-1.7,10.2-4.5,14.3c-1.1-0.2-2.2-0.4-3.2-1c-1.1-0.5-2.2-1.2-3.1-2.1c-1-0.9-1.9-1.9-2.6-3c-0.8-1.1-1.4-2.4-1.9-3.7l0,0
	c-0.1-0.2-0.3-0.3-0.5-0.3c-0.3,0-0.5,0.2-0.4,0.5c0.1,1.5,0.4,3,0.8,4.5c0.4,1.5,1,2.9,1.9,4.3c0.8,1.4,1.8,2.7,3.1,3.9
	c0.6,0.6,1.2,1.1,1.9,1.6c-4.5,3.9-10.3,6.3-16.7,6.3C50.4,259,39.1,247.7,39.1,233.8z M61.1,343.6c-0.9,0-1.7-0.1-2.5-0.3
	c-0.8-0.1-1.6-0.4-2.4-0.6c-0.4-0.1-0.7-0.3-1.1-0.4c-0.4-0.1-0.7-0.3-1.1-0.5c-2.8-1.3-5.2-3.4-6.8-6c-1.6-2.5-2.5-5.5-2.6-8.7
	c0-0.4,0-0.8,0-1.2c0-0.4,0-0.8,0.1-1.2c0.1-0.8,0.2-1.6,0.4-2.4c0.2-0.8,0.5-1.6,0.8-2.4c0.3-0.8,0.7-1.6,1.2-2.4l0.1-0.1
	c0.1-0.1,0.2-0.2,0.4-0.1c0.1,0,0.1,0.1,0.1,0.2l0.1,2c0.1,0.7,0.2,1.3,0.2,2c0.1,0.7,0.2,1.3,0.3,2c0.1,0.7,0.3,1.3,0.5,1.9
	c0.7,2.6,1.7,5,3.1,7.2c1.4,2.2,3.2,4.1,5.2,5.8c0.5,0.4,1,0.8,1.6,1.2c0.6,0.4,1.1,0.8,1.7,1.1c0.6,0.4,1.1,0.7,1.7,1.1l1.8,1
	c0.1,0.1,0.1,0.2,0,0.3c-0.1,0.1-0.1,0.1-0.2,0.1l-0.2,0C62.8,343.6,61.9,343.6,61.1,343.6z M44,356.7c-0.1,0.1-0.2,0.1-0.3,0.2
	l-0.2,0c-1.2,0.2-2.4,0.2-3.6,0.2c-1.1,0-2.2-0.2-3.4-0.4c-1.1-0.2-2.1-0.5-3.2-0.8c-0.5-0.1-1-0.4-1.5-0.6c-0.5-0.2-1-0.4-1.5-0.6
	c-3.8-1.8-6.9-4.6-9.1-8c-2.2-3.4-3.4-7.4-3.5-11.6c0-0.5,0-1.1,0-1.6c0-0.5,0-1,0.1-1.6c0.2-1.1,0.3-2.1,0.6-3.2
	c0.3-1.1,0.6-2.1,1.1-3.2c0.5-1.1,1-2.1,1.6-3.2l0.1-0.2c0.1-0.2,0.3-0.2,0.5-0.2c0.1,0,0.1,0.1,0.2,0.2l0.2,2.7
	c0.1,0.9,0.2,1.8,0.3,2.7c0.1,0.9,0.3,1.8,0.5,2.7c0.2,0.9,0.4,1.7,0.6,2.6c0.9,3.4,2.3,6.7,4.2,9.6c1.9,2.9,4.2,5.5,7,7.8
	c0.7,0.6,1.4,1.1,2.1,1.7c0.7,0.5,1.5,1,2.2,1.5c0.8,0.5,1.5,1,2.3,1.4l2.4,1.3C44.1,356.3,44.1,356.5,44,356.7z M54.1,350
	c-0.1,0.1-0.2,0.1-0.2,0.1l-0.2,0c-1.1,0.1-2.1,0.2-3.1,0.2c-1,0-2-0.2-2.9-0.3c-0.9-0.2-1.8-0.4-2.8-0.7c-0.5-0.1-0.9-0.3-1.3-0.5
	c-0.4-0.2-0.9-0.3-1.3-0.5c-3.3-1.6-6-4-8-7c-1.9-3-3-6.5-3-10.2c0-0.5,0-0.9,0-1.4c0-0.5,0-0.9,0.1-1.4c0.1-0.9,0.3-1.9,0.5-2.8
	c0.3-0.9,0.5-1.9,0.9-2.8c0.4-0.9,0.9-1.9,1.4-2.8l0.1-0.2c0.1-0.1,0.3-0.2,0.4-0.1c0.1,0,0.1,0.1,0.1,0.2l0.1,2.4
	c0.1,0.8,0.2,1.6,0.3,2.4c0.1,0.8,0.3,1.6,0.4,2.3c0.1,0.8,0.4,1.5,0.5,2.3c0.8,3,2,5.8,3.7,8.4c1.6,2.6,3.7,4.8,6.1,6.8
	c0.6,0.5,1.2,1,1.8,1.4c0.7,0.4,1.3,0.9,1.9,1.3c0.7,0.4,1.3,0.8,2,1.2l2.1,1.1C54.1,349.7,54.2,349.8,54.1,350z M75.9,230.7
	c-2.7-0.2-4.7-2.6-4.5-5.3c0.2-2.7,2.6-4.7,5.3-4.5s4.7,2.6,4.5,5.3C80.9,228.9,78.6,230.9,75.9,230.7z M258.3,404.5v33.1H234
	c-17.3,0-30.5,1.4-42.4-10.5c-9.6-9.6-7.6-27.4-7.6-46.1V266.8h-11.5v-33H184v-31.7h52.5v31.7h14.6v33h-14.6v121.4
	c0,5.2-0.5,10.7,1.6,13.5c2.1,2.8,6.6,2.7,10.5,2.7H258.3z M106.3,202.1h53.1v31.7h-53.1V202.1z M106.3,361.3l7,4.6l-7,5.8V361.3z
	 M106.3,244.8h53.1v191.7h-53.1v-45.1L131,371c1.9-1.5,2.9-3.9,2.7-6.3c-0.1-2.4-1.4-4.6-3.5-5.9l-24-15.5v-26.9l9.5,4.1
	c1,0.4,2,0.6,3,0.6c0.8,0,1.5-0.1,2.3-0.3l26.5-8.3c1.9-0.6,3.5-1.9,4.5-3.7c0.9-1.8,1.1-3.9,0.5-5.8c-1-3.2-3.9-5.3-7.2-5.3
	c-0.8,0-1.5,0.1-2.3,0.3l-23.8,7.4l-13-5.7V244.8z"/>
</svg>
